<svg width="1200" height="700" viewBox="0 0 1200 700" fill="none" xmlns="http://www.w3.org/2000/svg">
  <defs>
    <linearGradient id="bg" x1="0" y1="0" x2="1200" y2="700" gradientUnits="userSpaceOnUse">
      <stop stop-color="#2b313b"/>
      <stop offset="1" stop-color="#37424f"/>
    </linearGradient>
    <linearGradient id="robot" x1="0" y1="0" x2="1" y2="1">
      <stop stop-color="#7085a9"/>
      <stop offset="1" stop-color="#5a697b"/>
    </linearGradient>
  </defs>

  <rect width="1200" height="700" rx="28" fill="url(#bg)"/>
  <circle cx="1028" cy="92" r="42" fill="#4b5868" opacity="0.8"/>
  <circle cx="148" cy="612" r="54" fill="#465362" opacity="0.75"/>

  <text x="70" y="84" fill="#f8ebe2" font-family="Space Grotesk, Inter, sans-serif" font-size="38" font-weight="700">Job Bot Companion</text>
  <text x="74" y="126" fill="#c9bac3" font-family="Inter, sans-serif" font-size="22">Bot visual para alertas automaticas de empleo</text>

  <rect x="520" y="150" width="480" height="320" rx="24" fill="#2f3946" stroke="#667385" stroke-width="3"/>
  <rect x="560" y="196" width="390" height="18" rx="9" fill="#56657a"/>
  <rect x="560" y="232" width="330" height="18" rx="9" fill="#607086"/>
  <rect x="560" y="268" width="360" height="18" rx="9" fill="#6c7e98"/>
  <rect x="560" y="316" width="180" height="66" rx="14" fill="#d59a7d"/>
  <text x="598" y="357" fill="#2b313b" font-family="Space Grotesk, Inter, sans-serif" font-size="26" font-weight="700">RUN</text>

  <g transform="translate(180 210)">
    <rect x="0" y="90" width="250" height="220" rx="52" fill="url(#robot)" stroke="#8ca0bd" stroke-width="4"/>
    <rect x="42" y="0" width="168" height="132" rx="38" fill="#5d6f87" stroke="#8ca0bd" stroke-width="4"/>
    <circle cx="90" cy="60" r="16" fill="#f8ebe2"/>
    <circle cx="160" cy="60" r="16" fill="#f8ebe2"/>
    <rect x="88" y="94" width="74" height="12" rx="6" fill="#eadbd1"/>
    <rect x="-46" y="140" width="60" height="26" rx="13" fill="#6c7e98" stroke="#8ca0bd" stroke-width="3"/>
    <rect x="236" y="140" width="60" height="26" rx="13" fill="#6c7e98" stroke="#8ca0bd" stroke-width="3"/>
    <rect x="54" y="296" width="54" height="20" rx="10" fill="#d59a7d"/>
    <rect x="144" y="296" width="54" height="20" rx="10" fill="#d59a7d"/>
    <circle cx="86" cy="338" r="28" fill="#1f252e"/>
    <circle cx="170" cy="338" r="28" fill="#1f252e"/>
    <rect x="120" y="-20" width="12" height="20" rx="6" fill="#d59a7d"/>
    <circle cx="126" cy="-30" r="12" fill="#e1af97"/>
  </g>

  <path d="M430 360C505 300 540 290 560 300" stroke="#d59a7d" stroke-width="8" stroke-linecap="round" stroke-dasharray="14 14"/>
  <circle cx="470" cy="332" r="11" fill="#d59a7d"/>
  <circle cx="512" cy="316" r="11" fill="#7085a9"/>
  <circle cx="548" cy="306" r="11" fill="#e1af97"/>
</svg>
