<svg width="1200" height="700" viewBox="0 0 1200 700" fill="none" xmlns="http://www.w3.org/2000/svg">
  <defs>
    <linearGradient id="bg" x1="40" y1="40" x2="1160" y2="660" gradientUnits="userSpaceOnUse">
      <stop stop-color="#2b313b" />
      <stop offset="1" stop-color="#37424f" />
    </linearGradient>
    <linearGradient id="panel" x1="0" y1="0" x2="1" y2="1">
      <stop stop-color="#3e4a59" />
      <stop offset="1" stop-color="#313b48" />
    </linearGradient>
    <linearGradient id="cta" x1="0" y1="0" x2="1" y2="1">
      <stop stop-color="#d59a7d" />
      <stop offset="1" stop-color="#e1af97" />
    </linearGradient>
  </defs>

  <rect width="1200" height="700" rx="28" fill="url(#bg)"/>
  <rect x="64" y="64" width="1072" height="572" rx="26" fill="#2f3946" stroke="#5f6b79" stroke-width="2"/>

  <text x="110" y="132" fill="#f8ebe2" font-family="Space Grotesk, Inter, sans-serif" font-size="32" font-weight="700">image_generator_pwa</text>
  <text x="110" y="166" fill="#c9bac3" font-family="JetBrains Mono, monospace" font-size="18">prompt -&gt; generate -&gt; preview</text>

  <rect x="108" y="198" width="454" height="362" rx="22" fill="url(#panel)" stroke="#6a7685"/>
  <text x="140" y="244" fill="#c9bac3" font-family="JetBrains Mono, monospace" font-size="18">Prompt</text>
  <rect x="140" y="260" width="386" height="78" rx="14" fill="#27303a" stroke="#5f6b79"/>
  <text x="158" y="307" fill="#eadbd1" font-family="Inter, Arial, sans-serif" font-size="20">golden retriever, cinematic style</text>

  <text x="140" y="382" fill="#c9bac3" font-family="JetBrains Mono, monospace" font-size="18">Style</text>
  <rect x="140" y="398" width="180" height="46" rx="11" fill="#27303a" stroke="#5f6b79"/>
  <text x="162" y="427" fill="#eadbd1" font-family="Inter, Arial, sans-serif" font-size="18">Cinematic</text>

  <rect x="350" y="390" width="176" height="60" rx="30" fill="url(#cta)"/>
  <text x="388" y="426" fill="#2b313b" font-family="Space Grotesk, Inter, sans-serif" font-size="22" font-weight="700">Generate</text>

  <circle cx="526" cy="404" r="22" stroke="#d59a7d" stroke-width="3" stroke-dasharray="8 8"/>

  <path d="M438 372L468 456L486 434L516 444L522 428L492 418L508 388L438 372Z" fill="#f8ebe2"/>

  <rect x="604" y="198" width="490" height="362" rx="22" fill="url(#panel)" stroke="#6a7685"/>
  <text x="636" y="244" fill="#c9bac3" font-family="JetBrains Mono, monospace" font-size="18">Preview</text>
  <rect x="636" y="260" width="424" height="266" rx="18" fill="#2b313b" stroke="#7085a9"/>

  <rect x="664" y="286" width="368" height="214" rx="16" fill="#3a4655" stroke="#6a7685"/>
  <rect x="686" y="306" width="324" height="124" rx="12" fill="#47576a"/>
  <path d="M696 408C738 350 778 336 816 378C846 410 876 416 904 392C932 368 962 354 998 390V430H696V408Z" fill="#d59a7d"/>
  <path d="M694 430H1012V462C1012 474 1002 484 990 484H716C704 484 694 474 694 462V430Z" fill="#5a697b"/>

  <circle cx="760" cy="350" r="28" fill="#7085a9"/>
  <circle cx="916" cy="332" r="20" fill="#e1af97"/>

  <rect x="970" y="174" width="12" height="12" rx="2" fill="#d59a7d"/>
  <rect x="934" y="152" width="10" height="18" rx="3" fill="#7085a9"/>
  <circle cx="1008" cy="170" r="8" fill="#e1af97"/>
</svg>
